<?xml version="1.0" encoding="UTF-8"?>
<svg xmlns="http://www.w3.org/2000/svg" viewBox="0 0 960 720" width="960" height="720">
  <style>
    text { font-family: "Helvetica Neue", Helvetica, Arial, "PingFang SC", "Microsoft YaHei", sans-serif; }
  </style>
  <defs>
    <marker id="ab" markerWidth="10" markerHeight="7" refX="9" refY="3.5" orient="auto"><polygon points="0 0, 10 3.5, 0 7" fill="#2563eb"/></marker>
    <marker id="ar" markerWidth="10" markerHeight="7" refX="9" refY="3.5" orient="auto"><polygon points="0 0, 10 3.5, 0 7" fill="#dc2626"/></marker>
  </defs>
  <rect width="960" height="720" fill="#ffffff"/>
  <text x="480" y="32" text-anchor="middle" fill="#111827" font-size="18" font-weight="600">AgentRouters L1-L4 路由决策流程</text>
  <text x="50" y="110" fill="#6b7280" font-size="11" font-weight="600">L1 优先路由</text>
  <text x="50" y="230" fill="#6b7280" font-size="11" font-weight="600">L2 会话缓存</text>
  <text x="50" y="350" fill="#6b7280" font-size="11" font-weight="600">L3 规则匹配</text>
  <text x="50" y="470" fill="#6b7280" font-size="11" font-weight="600">L4 默认兜底</text>
  <rect x="240" y="50" width="120" height="40" rx="20" fill="#f3f4f6" stroke="#6b7280" stroke-width="1.5"/>
  <text x="300" y="75" text-anchor="middle" fill="#374151" font-size="13" font-weight="600">Start</text>
  <polygon points="300,110 430,150 300,190 170,150" fill="#eff6ff" stroke="#3b82f6" stroke-width="1.5"/>
  <text x="300" y="146" text-anchor="middle" fill="#1e40af" font-size="11" font-weight="600"></text>
  <text x="300" y="160" text-anchor="middle" fill="#1e40af" font-size="11" font-weight="600">X-Preferred-Agent?</text>
  <polygon points="300,230 420,270 300,310 180,270" fill="#eff6ff" stroke="#3b82f6" stroke-width="1.5"/>
  <text x="300" y="275" text-anchor="middle" fill="#1e40af" font-size="11" font-weight="600">Session Cache?</text>
  <polygon points="300,350 420,390 300,430 180,390" fill="#eff6ff" stroke="#3b82f6" stroke-width="1.5"/>
  <text x="300" y="395" text-anchor="middle" fill="#1e40af" font-size="11" font-weight="600">Match Rule?</text>
  <polygon points="300,470 420,510 300,550 180,510" fill="#eff6ff" stroke="#3b82f6" stroke-width="1.5"/>
  <text x="300" y="515" text-anchor="middle" fill="#1e40af" font-size="11" font-weight="600">Default Agent?</text>
  <rect x="680" y="280" width="160" height="50" rx="8" fill="#dcfce7" stroke="#22c55e" stroke-width="2"/>
  <text x="760" y="305" text-anchor="middle" fill="#166534" font-size="13" font-weight="700">Return agent_id</text>
  <text x="760" y="322" text-anchor="middle" fill="#166534" font-size="11">路由命中</text>
  <rect x="680" y="560" width="140" height="40" rx="8" fill="#fee2e2" stroke="#ef4444" stroke-width="1.5"/>
  <text x="750" y="585" text-anchor="middle" fill="#991b1b" font-size="12" font-weight="600">404 AgentNotFound</text>
  <line x1="300" y1="90" x2="300" y2="110" stroke="#6b7280" stroke-width="1.5" marker-end="url(#ab)"/>
  <path d="M 430 150 L 500 150 L 500 305 L 680 305" stroke="#2563eb" stroke-width="1.5" fill="none" marker-end="url(#ab)"/>
  <rect x="440" y="140" width="30" height="16" fill="#ffffff" opacity="0.95"/>
  <text x="455" y="152" text-anchor="middle" fill="#2563eb" font-size="10" font-weight="600">Yes</text>
  <line x1="300" y1="190" x2="300" y2="230" stroke="#6b7280" stroke-width="1.5" marker-end="url(#ab)"/>
  <rect x="305" y="200" width="24" height="16" fill="#ffffff" opacity="0.95"/>
  <text x="317" y="212" text-anchor="middle" fill="#6b7280" font-size="10" font-weight="600">No</text>
  <path d="M 420 270 L 500 270 L 500 305" stroke="#2563eb" stroke-width="1.5" fill="none" marker-end="url(#ab)"/>
  <rect x="430" y="260" width="30" height="16" fill="#ffffff" opacity="0.95"/>
  <text x="445" y="272" text-anchor="middle" fill="#2563eb" font-size="10" font-weight="600">Yes</text>
  <line x1="300" y1="310" x2="300" y2="350" stroke="#6b7280" stroke-width="1.5" marker-end="url(#ab)"/>
  <rect x="305" y="320" width="24" height="16" fill="#ffffff" opacity="0.95"/>
  <text x="317" y="332" text-anchor="middle" fill="#6b7280" font-size="10" font-weight="600">No</text>
  <path d="M 420 390 L 500 390 L 500 330" stroke="#2563eb" stroke-width="1.5" fill="none" marker-end="url(#ab)"/>
  <rect x="430" y="380" width="30" height="16" fill="#ffffff" opacity="0.95"/>
  <text x="445" y="392" text-anchor="middle" fill="#2563eb" font-size="10" font-weight="600">Yes</text>
  <line x1="300" y1="430" x2="300" y2="470" stroke="#6b7280" stroke-width="1.5" marker-end="url(#ab)"/>
  <rect x="305" y="440" width="24" height="16" fill="#ffffff" opacity="0.95"/>
  <text x="317" y="452" text-anchor="middle" fill="#6b7280" font-size="10" font-weight="600">No</text>
  <path d="M 420 510 L 500 510 L 500 330" stroke="#2563eb" stroke-width="1.5" fill="none" marker-end="url(#ab)"/>
  <rect x="430" y="500" width="30" height="16" fill="#ffffff" opacity="0.95"/>
  <text x="445" y="512" text-anchor="middle" fill="#2563eb" font-size="10" font-weight="600">Yes</text>
  <path d="M 300 550 L 300 580 L 680 580" stroke="#dc2626" stroke-width="1.5" fill="none" marker-end="url(#ar)"/>
  <rect x="305" y="560" width="24" height="16" fill="#ffffff" opacity="0.95"/>
  <text x="317" y="572" text-anchor="middle" fill="#dc2626" font-size="10" font-weight="600">No</text>
  <text x="860" y="305" text-anchor="middle" fill="#6b7280" font-size="11">命中即返回</text>
  <text x="860" y="580" text-anchor="middle" fill="#6b7280" font-size="11">全部未命中</text>
</svg>